<svg width="24" height="24" viewBox="0 0 24 24" fill="none" xmlns="http://www.w3.org/2000/svg">
<g id="fa-regular:star">
<path id="Vector" d="M21.9245 8.71793L16.1897 7.886L13.6265 2.71476C13.1673 1.793 11.8366 1.78129 11.3735 2.71476L8.81029 7.886L3.07553 8.71793C2.04712 8.86635 1.63497 10.1279 2.38077 10.8505L6.52973 14.8734L5.54842 20.5563C5.37179 21.5835 6.45908 22.353 7.36973 21.8726L12.5 19.1893L17.6303 21.8726C18.5409 22.3491 19.6282 21.5835 19.4516 20.5563L18.4703 14.8734L22.6192 10.8505C23.365 10.1279 22.9529 8.86635 21.9245 8.71793ZM16.4488 14.2172L17.3791 19.6228L12.5 17.0724L7.62094 19.6228L8.55122 14.2172L4.60244 10.3896L10.0585 9.60063L12.5 4.67937L14.9415 9.60063L20.3976 10.3896L16.4488 14.2172Z" fill="#34AADD"/>
</g>
</svg>
