<svg xmlns="http://www.w3.org/2000/svg" xmlns:xlink="http://www.w3.org/1999/xlink"><defs><symbol fill="none" viewBox="0 0 12 12" id="icon-arrow"><path d="M11.063 6H.937m10.126 0l-4.5 4.5m4.5-4.5l-4.5-4.5" stroke="currentColor" stroke-width="1.8" stroke-linecap="round" stroke-linejoin="round" /></symbol><symbol fill="none" viewBox="0 0 16 16" id="icon-arrow-accordeon"><path d="M3.2 5.6l3.952 3.952c.467.466 1.23.466 1.697 0L12.801 5.6" stroke="currentColor" stroke-width="1.5" stroke-miterlimit="10" stroke-linecap="round" stroke-linejoin="round" /></symbol><symbol fill="none" viewBox="0 0 12 12" id="icon-arrow-more"><path d="M9.6 4.574L6.636 7.537a.903.903 0 01-1.272 0L2.4 4.574" stroke="currentColor" stroke-width="1.5" stroke-miterlimit="10" stroke-linecap="round" stroke-linejoin="round" /></symbol><symbol fill="none" viewBox="0 0 36 36" id="icon-arrow-slider"><path d="M28.5 18.844h-21a.844.844 0 010-1.688h21a.844.844 0 010 1.688z" fill="currentColor" /><path d="M21.5 24.49a.844.844 0 01-.53-1.5l6.185-4.99-6.185-4.989a.844.844 0 011.06-1.313l6.999 5.645a.844.844 0 010 1.314l-7 5.645a.84.84 0 01-.528.187z" fill="currentColor" /></symbol><symbol fill="none" viewBox="0 0 24 24" id="icon-chat"><path fill-rule="evenodd" clip-rule="evenodd" d="M19.899 12.294c-.507 3.254-3.13 5.953-6.38 6.562a8.003 8.003 0 01-4.616-.487 3.215 3.215 0 00-1.253-.262c-.19 0-.378.018-.563.055l-2.812.562.563-2.817c.118-.585.046-1.21-.207-1.81a8.01 8.01 0 01-.487-4.617c.609-3.249 3.307-5.872 6.562-6.379 2.59-.403 5.123.413 6.95 2.241 1.83 1.83 2.647 4.363 2.243 6.952zm-.827-8.366c-2.285-2.284-5.445-3.303-8.674-2.804-4.077.636-7.457 3.92-8.22 7.987a10.008 10.008 0 00.61 5.765c.098.231.128.446.09.64l-.858 4.287a.997.997 0 00.274.903.996.996 0 00.903.274l4.283-.857a1.15 1.15 0 01.643.088 10.02 10.02 0 005.765.611c4.068-.763 7.352-4.143 7.988-8.22.502-3.227-.52-6.389-2.804-8.674z" fill="currentColor" /></symbol><symbol fill="none" viewBox="0 0 11 8" id="icon-checkmark"><path fill-rule="evenodd" clip-rule="evenodd" d="M10.678.335c.43.446.43 1.17 0 1.616l-5.5 5.714a1.071 1.071 0 01-1.556 0l-3.3-3.428a1.175 1.175 0 010-1.617 1.071 1.071 0 011.556 0L4.4 5.24 9.122.336a1.071 1.071 0 011.556 0z" fill="currentColor" /></symbol><symbol fill="none" viewBox="0 0 24 24" id="icon-cross"><path fill-rule="evenodd" clip-rule="evenodd" d="M13.414 12l4.293-4.293a.999.999 0 10-1.414-1.414L12 10.586 7.707 6.293a.999.999 0 10-1.414 1.414L10.586 12l-4.293 4.293a.999.999 0 101.414 1.414L12 13.414l4.293 4.293a.997.997 0 001.414 0 .999.999 0 000-1.414L13.414 12z" fill="currentColor" /></symbol><symbol fill="none" viewBox="0 0 24 24" id="icon-eye"><path fill-rule="evenodd" clip-rule="evenodd" d="M12 13.5c-.827 0-1.5-.673-1.5-1.5s.673-1.5 1.5-1.5 1.5.673 1.5 1.5-.673 1.5-1.5 1.5zm0-5c-1.93 0-3.5 1.57-3.5 3.5s1.57 3.5 3.5 3.5 3.5-1.57 3.5-3.5-1.57-3.5-3.5-3.5zm.22 8.498c-4.306.1-7.115-3.583-8.047-5.002 1.026-1.605 3.61-4.891 7.608-4.993 4.289-.11 7.114 3.583 8.046 5.002-1.025 1.605-3.61 4.89-7.607 4.993zm9.648-5.495c-.638-1.112-4.162-6.686-10.138-6.5-5.528.14-8.743 5.01-9.597 6.5a.999.999 0 000 .995C2.762 13.595 6.162 19 12.025 19l.246-.003c5.527-.141 8.743-5.01 9.597-6.5a1.004 1.004 0 000-.994z" fill="currentColor" /></symbol><symbol fill="none" viewBox="0 0 24 24" id="icon-info"><path fill-rule="evenodd" clip-rule="evenodd" d="M11 8a1 1 0 112 0 1 1 0 01-2 0zm0 3a1 1 0 012 0v5a1 1 0 01-2 0v-5zm1 9c-4.411 0-8-3.589-8-8s3.589-8 8-8 8 3.589 8 8-3.589 8-8 8zm0-18C6.477 2 2 6.477 2 12s4.477 10 10 10c5.522 0 10-4.477 10-10S17.522 2 12 2z" fill="currentColor" /></symbol><symbol fill="none" viewBox="0 0 40 40" id="icon-insta"><path d="M24.715 10.503c-1.23-.056-1.6-.066-4.715-.066-3.115 0-3.483.011-4.713.066-3.165.145-4.639 1.644-4.784 4.784-.055 1.23-.068 1.598-.068 4.713s.013 3.483.068 4.715c.145 3.132 1.612 4.638 4.784 4.783 1.228.055 1.598.069 4.713.069 3.117 0 3.485-.012 4.715-.069 3.165-.143 4.637-1.646 4.783-4.783.055-1.23.067-1.6.067-4.715 0-3.115-.012-3.483-.067-4.713-.146-3.139-1.621-4.639-4.783-4.784zM20 25.992a5.992 5.992 0 110-11.984 5.992 5.992 0 010 11.984zm6.228-10.819a1.4 1.4 0 110-2.8 1.4 1.4 0 010 2.8zM23.888 20a3.888 3.888 0 11-7.776 0 3.888 3.888 0 017.776 0zM20 0C8.955 0 0 8.955 0 20s8.955 20 20 20 20-8.955 20-20S31.045 0 20 0zm11.597 24.81c-.192 4.242-2.554 6.592-6.785 6.787-1.245.056-1.644.07-4.812.07s-3.565-.014-4.81-.07c-4.24-.195-6.592-2.549-6.787-6.787-.056-1.243-.07-1.642-.07-4.81 0-3.168.014-3.565.07-4.81.195-4.24 2.549-6.592 6.787-6.785 1.245-.058 1.642-.072 4.81-.072 3.168 0 3.567.014 4.812.072 4.241.195 6.595 2.553 6.785 6.785.056 1.245.07 1.642.07 4.81 0 3.168-.014 3.567-.07 4.81z" fill="currentColor" /></symbol><symbol fill="none" viewBox="0 0 24 24" id="icon-like"><path d="M11.3 18.963l-.022-.021-.023-.02c-2.617-2.271-4.7-4.105-6.138-5.822C3.689 11.396 3 9.926 3 8.395 3 5.925 4.934 4 7.5 4c1.408 0 2.832.657 3.743 1.713l.757.878.757-.878A5.058 5.058 0 0116.5 4C19.066 4 21 5.925 21 8.395c0 1.53-.689 3-2.116 4.705-1.44 1.717-3.522 3.55-6.14 5.822l-.022.02-.022.021-.7.686-.7-.686z" stroke="currentColor" stroke-width="2" /></symbol><symbol fill="none" viewBox="0 0 135 27" id="icon-logo-mini"><path fill-rule="evenodd" clip-rule="evenodd" d="M29.237 25.79H22.14l-1.003-1.309a41.5 41.5 0 01-3.703 1.232c-1.08.23-2.237.385-3.548.385-4.32 0-7.715-1.078-10.106-3.157C1.234 20.786 0 17.476 0 13.241c0-4.31 1.157-7.621 3.394-9.854C5.71 1.155 9.18 0 13.886 0c4.551 0 8.023 1.232 10.414 3.618 2.083 2.079 3.086 4.773 3.086 8.007 0 2.386-.077 4.157-.309 5.235-.308 1.693-1.08 3.31-2.16 4.773l4.32 4.157zm-8.1-12.78c0-2.31-.463-4.157-1.466-5.62-1.234-1.847-3.24-2.77-5.862-2.77-2.469 0-4.398.692-5.632 2.155-1.234 1.385-1.851 3.464-1.851 6.158 0 3.003.694 5.235 2.16 6.621 1.311 1.232 3.24 1.848 5.785 1.848 2.315 0 4.012-.693 5.169-2.079 1.157-1.463 1.697-3.541 1.697-6.313zM56.006 17.86c0 2.233-.771 4.08-2.237 5.62-1.465 1.54-3.317 2.233-5.631 2.233H30.395V21.17h14.734c1.003 0 1.852-.231 2.469-.693.771-.539 1.157-1.232 1.157-2.156 0-2.155-1.543-3.233-4.552-3.233h-7.405c-2.16 0-4.012-.693-5.632-2.002-1.62-1.308-2.391-3.002-2.391-5.08 0-2.233.771-4.08 2.391-5.467C32.71 1.155 34.792.462 37.415.462h17.049v4.311h-15.12c-.695 0-1.39.308-2.006.847-.772.539-1.08 1.232-1.08 2.001 0 .847.308 1.617 1.003 2.156.694.616 1.465.847 2.391.847h8.177c2.546 0 4.552.693 6.017 2.001 1.466 1.31 2.16 3.08 2.16 5.235zM85.166 13.01c0 4.928-1.388 8.392-4.088 10.547-2.237 1.694-5.478 2.54-9.643 2.54-4.706 0-8.177-1-10.415-2.925-2.468-2.155-3.702-5.62-3.702-10.392 0-3.927 1.08-7.006 3.317-9.162 2.391-2.386 5.94-3.54 10.723-3.54 5.245 0 8.871 1.154 11.031 3.386 1.852 2.002 2.777 5.158 2.777 9.547zm-6.48-.153c0-2.464-.617-4.466-1.774-5.928-1.312-1.617-3.317-2.464-5.863-2.464-2.546 0-4.474.847-5.786 2.618-1.08 1.462-1.62 3.387-1.62 5.697 0 2.694.463 4.696 1.312 6.004 1.234 1.771 3.394 2.695 6.711 2.695 2.777 0 4.706-.847 5.786-2.618.849-1.231 1.234-3.31 1.234-6.004zM110.546 15.166H93.111v10.47h-6.248V10.162c0-.924.154-2.002.54-3.156.694-2.079 2.005-3.619 3.934-4.696C93.574 1.078 97.277.462 102.37.462H135v4.234h-9.411v20.94h-5.863V4.696c-6.017 0-11.726-.077-17.743-.077-2.315 0-3.934.154-4.86.385-1.62.385-2.7 1.309-3.395 2.617-.54 1.001-.77 2.079-.77 3.31h17.588v4.235z" fill="currentColor" /></symbol><symbol fill="none" viewBox="0 0 24 24" id="icon-menu"><rect x="2" y="5" width="20" height="2" rx="1" fill="currentColor" /><rect x="2" y="11" width="20" height="2" rx="1" fill="currentColor" /><rect x="2" y="17" width="20" height="2" rx="1" fill="currentColor" /></symbol><symbol fill="none" viewBox="0 0 24 24" id="icon-profile"><path fill-rule="evenodd" clip-rule="evenodd" d="M12 13c-4.075 0-7.446 3.059-7.938 7.002-.069.548.385.998.938.998.552 0 .99-.451 1.082-.996A6.01 6.01 0 0112 15a6.01 6.01 0 015.917 5.004c.091.545.53.996 1.083.996.552 0 1.006-.45.938-.998C19.445 16.059 16.075 13 12 13z" fill="currentColor" /><path d="M12 11c2.206 0 4-1.794 4-4s-1.794-4-4-4-4 1.794-4 4 1.794 4 4 4" stroke="currentColor" stroke-width="2" /></symbol><symbol fill="none" viewBox="0 0 24 24" id="icon-question"><path fill-rule="evenodd" clip-rule="evenodd" d="M8.5 9.5C8.5 7.57 10.07 6 12 6s3.5 1.57 3.5 3.5c0 1.58-1.06 2.903-2.5 3.337V14a1 1 0 11-2 0v-2a1 1 0 011-1c.827 0 1.5-.673 1.5-1.5S12.827 8 12 8s-1.5.673-1.5 1.5a1 1 0 11-2 0zM11 17a1 1 0 112 0 1 1 0 11-2 0zm1 3c-4.411 0-8-3.589-8-8s3.589-8 8-8 8 3.589 8 8-3.589 8-8 8zm0-18C6.486 2 2 6.486 2 12s4.486 10 10 10 10-4.486 10-10S17.514 2 12 2z" fill="currentColor" /></symbol><symbol fill="none" viewBox="0 0 24 24" id="icon-search"><path d="M20 20l-4.904-4.904m0 0a6.5 6.5 0 10-9.192-9.192 6.5 6.5 0 009.192 9.192z" stroke="currentColor" stroke-width="1.8" stroke-linecap="round" stroke-linejoin="round" /></symbol><symbol fill="none" viewBox="0 0 24 24" id="icon-star"><path fill-rule="evenodd" clip-rule="evenodd" d="M12 16.05c.159 0 .318.038.463.113l3.769 1.97-.717-4.157a.999.999 0 01.29-.889l3.035-2.936-4.203-.612a.999.999 0 01-.752-.544L12 5.201l-1.886 3.794a.998.998 0 01-.751.544l-4.203.612 3.036 2.936a.999.999 0 01.29.889l-.717 4.157 3.769-1.97c.144-.075.303-.113.462-.113zm5.561 4.905a.996.996 0 01-.462-.113l-5.1-2.664-5.098 2.664a1 1 0 01-1.448-1.057l.972-5.628-4.12-3.985a.998.998 0 01.55-1.708l5.702-.828 2.546-5.126c.338-.68 1.454-.68 1.793 0l2.546 5.126 5.701.828a.998.998 0 01.551 1.708l-4.12 3.985.973 5.628a1 1 0 01-.986 1.17z" fill="currentColor" /></symbol><symbol fill="none" viewBox="0 0 40 40" id="icon-youTube"><path d="M20 0C8.955 0 0 8.955 0 20s8.955 20 20 20 20-8.955 20-20S31.045 0 20 0zm7.402 28.153c-3.504.24-11.307.24-14.805 0-3.794-.26-4.235-2.116-4.264-8.153.029-6.048.475-7.893 4.264-8.153 3.498-.24 11.303-.24 14.805 0 3.795.26 4.235 2.116 4.265 8.153-.03 6.048-.475 7.893-4.265 8.153zM16.667 16.097l8.195 3.896-8.195 3.91v-7.806z" fill="currentColor" /></symbol></defs></svg>